<svg width="29" height="22" viewBox="0 0 29 22" xmlns="http://www.w3.org/2000/svg">
<path fill-rule="evenodd" clip-rule="evenodd" d="M20.296 14.8333L23.1845 17.7217C23.2211 17.7583 23.2567 17.7955 23.2914 17.8333H27C27.8284 17.8333 28.5 17.1617 28.5 16.3333C28.5 15.5048 27.8284 14.8333 27 14.8333H20.296ZM20.1278 5.83325C19.7006 4.73683 19.1025 3.72591 18.3661 2.83325H27C27.8284 2.83325 28.5 3.50482 28.5 4.33325C28.5 5.16168 27.8284 5.83325 27 5.83325H20.1278ZM20.8735 9.81998C20.8735 9.48741 20.8587 9.1583 20.8297 8.83325H27C27.8284 8.83325 28.5 9.50482 28.5 10.3333C28.5 11.1617 27.8284 11.8333 27 11.8333H20.689C20.8102 11.1799 20.8735 10.5068 20.8735 9.81998Z"/>
<path fill-rule="evenodd" clip-rule="evenodd" d="M4.40002 9.81998C4.40002 6.78974 6.85652 4.33325 9.88675 4.33325C12.917 4.33325 15.3735 6.78974 15.3735 9.81998C15.3735 12.8502 12.917 15.3067 9.88675 15.3067C6.85652 15.3067 4.40002 12.8502 4.40002 9.81998ZM0.900024 9.81998C0.900024 4.85675 4.92352 0.833252 9.88675 0.833252C14.85 0.833252 18.8735 4.85675 18.8735 9.81998C18.8735 11.1704 18.5756 12.4513 18.042 13.6004C17.716 14.3024 17.7877 15.1533 18.335 15.7006L21.7703 19.136C22.3874 19.753 22.3874 20.7535 21.7703 21.3705C21.1532 21.9876 20.1528 21.9876 19.5357 21.3705L16.2117 18.0465C15.6413 17.4761 14.7458 17.4241 14.0303 17.7966C12.7904 18.4419 11.3812 18.8067 9.88675 18.8067C4.92352 18.8067 0.900024 14.7832 0.900024 9.81998Z"/>
</svg>
