<?xml version="1.0" encoding="UTF-8"?>
<!DOCTYPE svg PUBLIC "-//W3C//DTD SVG 1.1//EN" "http://www.w3.org/Graphics/SVG/1.1/DTD/svg11.dtd">
<svg xmlns="http://www.w3.org/2000/svg" xmlns:xlink="http://www.w3.org/1999/xlink">
<symbol id="arrow-down" viewBox="0 0 20 20">
	<path fill="#9797AF" d="M2.658 5.088a.97.97 0 0 1 1.378-.014l5.822 5.751a.2.2 0 0 0 .282-.001l5.707-5.74A1.009 1.009 0 0 1 17.285 6.5l-6.568 6.752a1 1 0 0 1-1.434 0L2.658 6.44a.97.97 0 0 1 0-1.353Z"/>
</symbol>
<symbol id="basket" viewBox="0 0 27 24">
	<path fill-rule="evenodd" d="M10.221 15.466a1 1 0 0 0 1.1.653l12.766-2.036a1 1 0 0 0 .824-.792l1.354-6.792a1 1 0 0 0-.964-1.196l-17.36-.28a1 1 0 0 0-.958 1.335l3.238 9.109ZM10.826 23.36a2.326 2.326 0 1 0 0-4.653 2.326 2.326 0 0 0 0 4.652ZM22.457 23.36a2.326 2.326 0 1 0 0-4.653 2.326 2.326 0 0 0 0 4.652ZM4 2c1.933 0 3.5-.224 3.5-.5S5.933 1 4 1s-3.5.224-3.5.5S2.067 2 4 2Z" clip-rule="evenodd"/>
	<path fill-rule="evenodd" d="M1.454.651C2.118.557 3.017.5 4 .5c.983 0 1.882.057 2.546.151.327.047.619.106.839.18.107.037.227.086.33.158.085.06.285.224.285.511 0 .287-.2.451-.285.51a1.317 1.317 0 0 1-.33.158c-.22.075-.512.134-.84.18C5.883 2.444 4.984 2.5 4 2.5c-.983 0-1.882-.057-2.546-.151a4.934 4.934 0 0 1-.839-.18 1.317 1.317 0 0 1-.33-.158C.2 1.95 0 1.787 0 1.5c0-.287.2-.451.285-.51C.388.916.508.867.615.831c.22-.075.512-.134.84-.18Z" clip-rule="evenodd"/>
</symbol>
<symbol id="catalog" viewBox="0 0 29 22">
	<path fill-rule="evenodd" d="m20.296 14.833 2.889 2.889c.036.036.072.073.106.111H27a1.5 1.5 0 0 0 0-3h-6.704Zm-.168-9a10.979 10.979 0 0 0-1.762-3H27a1.5 1.5 0 0 1 0 3h-6.872Zm.745 3.987c0-.333-.014-.662-.043-.987H27a1.5 1.5 0 0 1 0 3h-6.311c.121-.653.184-1.326.184-2.013Z" clip-rule="evenodd"/>
	<path fill-rule="evenodd" d="M4.4 9.82a5.487 5.487 0 1 1 10.973 0 5.487 5.487 0 0 1-10.973 0Zm-3.5 0a8.987 8.987 0 1 1 17.142 3.78c-.326.702-.254 1.553.293 2.1l3.435 3.436a1.58 1.58 0 1 1-2.234 2.235l-3.324-3.324c-.57-.57-1.466-.623-2.182-.25A8.987 8.987 0 0 1 .9 9.82Z" clip-rule="evenodd"/>
</symbol>
<symbol id="delete" viewBox="0 0 20 20">
	<path fill-rule="evenodd" d="M2.5 5a.5.5 0 0 1 .5-.5h14a.5.5 0 0 1 0 1H3a.5.5 0 0 1-.5-.5Z" clip-rule="evenodd"/>
	<path fill-rule="evenodd" d="M3.458 4.5h13.048l-.865 11.193A2.5 2.5 0 0 1 13.15 18H6.846a2.5 2.5 0 0 1-2.492-2.3L3.458 4.5Zm1.084 1 .81 10.12A1.5 1.5 0 0 0 6.845 17h6.303a1.5 1.5 0 0 0 1.495-1.384L15.426 5.5H4.542Z" clip-rule="evenodd"/>
	<path fill-rule="evenodd" d="M13 5.5H7V3.469C7 2.658 7.658 2 8.469 2h3.062C12.342 2 13 2.658 13 3.469V5.5ZM8.469 3A.469.469 0 0 0 8 3.469V4.5h4V3.469A.469.469 0 0 0 11.531 3H8.47Z" clip-rule="evenodd"/>
</symbol>
<symbol id="favorites" viewBox="0 0 29 29">
	<path d="M14.98 23.75a.996.996 0 0 1-1.322 0C8.252 18.952 3.5 14.28 3.5 10.311c0-3.37 2.618-5.979 6-5.979 1.658 0 3.317.696 4.507 1.853a.582.582 0 0 0 .804 0c1.19-1.157 2.849-1.853 4.507-1.853 3.382 0 6 2.609 6 5.979 0 3.969-4.92 8.641-10.339 13.438Z"/>
</symbol>
<symbol id="home" viewBox="0 0 28 29">
	<path fill-rule="evenodd" d="M3.392 13.764c-.957.94-.29 2.569 1.052 2.569H5v6a2 2 0 0 0 2 2h4.25a.5.5 0 0 0 .5-.5v-3.09a2 2 0 0 1 2-2h.5a2 2 0 0 1 2 2v3.09a.5.5 0 0 0 .5.5H21a2 2 0 0 0 2-2v-6h.379c1.336 0 2.005-1.616 1.06-2.56l-9.738-9.739a1 1 0 0 0-1.408-.006l-9.9 9.736Z" clip-rule="evenodd"/>
</symbol>
<symbol id="info" viewBox="0 0 20 20">
	<circle cx="10" cy="10" r="7.5" stroke="#9797AF"/>
	<path fill="#9797AF" d="M9.889 7.587a.907.907 0 0 1-.64-.23.755.755 0 0 1-.249-.57.72.72 0 0 1 .249-.567c.166-.147.38-.22.64-.22.263 0 .477.073.64.22a.72.72 0 0 1 .248.566.74.74 0 0 1-.249.576c-.162.15-.376.225-.64.225Zm.761 5.79H9.107v-5h1.543v5Z"/>
</symbol>
<symbol id="like" viewBox="0 0 20 20">
	<path fill-rule="evenodd" d="M3.034 4.059c-.768.693-1.267 1.774-1.04 3.37.23 1.599 1.27 3.256 2.81 4.919C6.26 13.918 8.11 15.444 10 16.874c1.89-1.43 3.741-2.956 5.195-4.526 1.54-1.663 2.581-3.32 2.81-4.919.228-1.596-.271-2.677-1.04-3.37C16.178 3.346 15.056 3 14 3c-1.868 0-2.908 1.085-3.482 1.684-.06.063-.115.12-.165.17a.5.5 0 0 1-.707 0 11.53 11.53 0 0 1-.164-.17C8.907 4.084 7.868 3 6 3c-1.055 0-2.177.346-2.966 1.059Zm-.67-.743C3.374 2.404 4.752 2 6 2c2.071 0 3.345 1.113 4 1.779C10.654 3.113 11.929 2 14 2c1.248 0 2.626.404 3.636 1.316 1.031.932 1.63 2.351 1.359 4.255-.272 1.901-1.48 3.744-3.066 5.456-1.594 1.722-3.623 3.368-5.63 4.873a.5.5 0 0 1-.6 0c-2.006-1.505-4.035-3.151-5.628-4.873-1.586-1.712-2.794-3.555-3.066-5.456-.272-1.904.327-3.323 1.359-4.255Z" clip-rule="evenodd"/>
</symbol>
<symbol id="pencil" viewBox="0 0 20 20">
	<path fill="#CB11AB" fill-rule="evenodd" d="m13.159 3.06 3.781 3.782L6.727 17.055l-3.992.798a.5.5 0 0 1-.588-.588l.798-3.992L13.16 3.06ZM4.177 13.932l8.982-8.981 1.89 1.89-8.981 8.982-2.364.473.473-2.364Z" clip-rule="evenodd"/>
	<path fill="#CB11AB" fill-rule="evenodd" d="m15.995 7.787-3.782-3.781 1.418-1.419a2.005 2.005 0 0 1 2.837 0l.945.946a2.006 2.006 0 0 1 0 2.836l-1.418 1.418Zm.473-2.363a.668.668 0 0 0 0-.946l-.946-.945a.668.668 0 0 0-.945 0l-.473.473 1.89 1.89.474-.472Z" clip-rule="evenodd"/>
</symbol>
<symbol id="profile" viewBox="0 0 28 29">
	<path fill-rule="evenodd" d="M2.8 22.706c0 1.068.745 1.627 2.828 1.627h16.345c2.082 0 2.827-.56 2.827-1.627 0-3.102-4.234-7.373-10.993-7.373-6.772 0-11.007 4.271-11.007 7.373ZM18.8 8.267c0 2.853-2.309 5.066-5 5.066s-5-2.213-5-5.042c-.013-2.793 2.322-4.958 5-4.958s5 2.116 5 4.934Z" clip-rule="evenodd"/>
</symbol>
<symbol id="search" viewBox="0 0 21 21">
	<path fill-rule="evenodd" d="M8.934 1.703a6.313 6.313 0 1 0 0 12.625 6.313 6.313 0 0 0 0-12.625ZM.938 8.015a7.996 7.996 0 1 1 15.992 0 7.996 7.996 0 0 1-15.992 0Z" clip-rule="evenodd"/>
	<path fill-rule="evenodd" d="M12.96 12.899a.842.842 0 0 1 1.19-.016l6.046 5.892a.842.842 0 1 1-1.175 1.206l-6.045-5.892a.842.842 0 0 1-.016-1.19Z" clip-rule="evenodd"/>
</symbol>
<symbol id="star" viewBox="0 0 12 13">
	<path fill="#FF970D" fill-rule="evenodd" d="M6.698 1.482a.755.755 0 0 0-1.396 0h1.396Zm-1.396 0L4.147 4.243l-2.955.256c-.673.059-.93.894-.432 1.329l2.245 1.964-.673 2.924c-.148.641.546 1.174 1.13.82L6 9.989l2.538 1.546c.585.357 1.278-.18 1.13-.82l-.673-2.923L11.24 5.83c.498-.436.24-1.27-.432-1.33l-2.955-.255-1.155-2.762" clip-rule="evenodd"/>
</symbol>
</svg>